<svg id="ICON图标-900_900px" data-name="ICON图标-900*900px" xmlns="http://www.w3.org/2000/svg" width="160" height="160" viewBox="0 0 1000 1000">
  <metadata><?xpacket begin="﻿" id="W5M0MpCehiHzreSzNTczkc9d"?>
<x:xmpmeta xmlns:x="adobe:ns:meta/" x:xmptk="Adobe XMP Core 6.0-c006 79.164753, 2021/02/15-11:52:13        ">
   <rdf:RDF xmlns:rdf="http://www.w3.org/1999/02/22-rdf-syntax-ns#">
      <rdf:Description rdf:about=""
            xmlns:xmp="http://ns.adobe.com/xap/1.0/">
         <xmp:CreatorTool>Adobe Photoshop CC 2019 (Macintosh)</xmp:CreatorTool>
      </rdf:Description>
   </rdf:RDF>
</x:xmpmeta>
                                                                                                    
                                                                                                    
                                                                                                    
                                                                                                    
                                                                                                    
                                                                                                    
                                                                                                    
                                                                                                    
                                                                                                    
                                                                                                    
                                                                                                    
                                                                                                    
                                                                                                    
                                                                                                    
                                                                                                    
                                                                                                    
                                                                                                    
                                                                                                    
                                                                                                    
                                                                                                    
                           
<?xpacket end="w"?></metadata>
<defs>
    <style>
      .cls-1 {
        fill: #10b981;
        fill-rule: evenodd;
      }
    </style>
  </defs>
  <g id="专业版">
    <path id="椭圆_8" data-name="椭圆 8" class="cls-1" d="M500,1000C223.858,1000,0,776.142,0,500S223.858,0,500,0s500,223.858,500,500S776.142,1000,500,1000Zm1-718.014s-36,41.386-36,61.256a36,36,0,0,0,72,0C537,323.372,501,281.986,501,281.986ZM750,455h0a30,30,0,0,0-60,0V571.1a80,80,0,0,1-160,0V432.184a30,30,0,0,0-60,0V571.1a80,80,0,0,1-160,0V455h0a30,30,0,0,0-60,0V578.09a140.021,140.021,0,0,0,250,86.552A140.021,140.021,0,0,0,750,578.09V455Z"/>
  </g>
</svg>
